<svg xmlns="http://www.w3.org/2000/svg" viewBox="100.032 95.054 159.301 175.425">
  <defs>
    <clipPath id="a" clipPathUnits="userSpaceOnUse">
      <path d="M0 0h612v792H0Z" style="clip-rule:evenodd"/>
    </clipPath>
    <clipPath id="b" clipPathUnits="userSpaceOnUse">
      <path d="M0 0h612v792H0Z" style="clip-rule:evenodd"/>
    </clipPath>
    <clipPath id="c" clipPathUnits="userSpaceOnUse">
      <path d="M0 0h612v792H0Z" style="clip-rule:evenodd"/>
    </clipPath>
    <clipPath id="d" clipPathUnits="userSpaceOnUse">
      <path d="M0 0h612v792H0Z" style="clip-rule:evenodd"/>
    </clipPath>
    <clipPath id="e" clipPathUnits="userSpaceOnUse">
      <path d="M0 0h612v792H0Z" style="clip-rule:evenodd"/>
    </clipPath>
    <clipPath id="f" clipPathUnits="userSpaceOnUse">
      <path d="M0 0h612v792H0Z" style="clip-rule:evenodd"/>
    </clipPath>
    <clipPath id="g" clipPathUnits="userSpaceOnUse">
      <path d="M0 0h612v792H0Z" style="clip-rule:evenodd"/>
    </clipPath>
    <clipPath id="h" clipPathUnits="userSpaceOnUse">
      <path d="M0 0h612v792H0Z" style="clip-rule:evenodd"/>
    </clipPath>
    <clipPath id="i" clipPathUnits="userSpaceOnUse">
      <path d="M0 0h612v792H0Z" style="clip-rule:evenodd"/>
    </clipPath>
    <clipPath id="j" clipPathUnits="userSpaceOnUse">
      <path d="M0 0h612v792H0Z" style="clip-rule:evenodd"/>
    </clipPath>
    <clipPath id="k" clipPathUnits="userSpaceOnUse">
      <path d="M0 0h612v792H0Z" style="clip-rule:evenodd"/>
    </clipPath>
    <clipPath id="l" clipPathUnits="userSpaceOnUse">
      <path d="M0 0h612v792H0Z" style="clip-rule:evenodd"/>
    </clipPath>
    <clipPath id="m" clipPathUnits="userSpaceOnUse">
      <path d="M0 0h612v792H0Z" style="clip-rule:evenodd"/>
    </clipPath>
    <clipPath id="n" clipPathUnits="userSpaceOnUse">
      <path d="M0 0h612v792H0Z" style="clip-rule:evenodd"/>
    </clipPath>
    <clipPath id="o" clipPathUnits="userSpaceOnUse">
      <path d="M0 0h612v792H0Z" style="clip-rule:evenodd"/>
    </clipPath>
  </defs>
  <g clip-path="url(#a)" transform="matrix(1.33333 0 0 -1.33333 0 1056)">
    <text style="font-variant:normal;font-weight:400;font-size:10.56px;font-family:&quot;Dank Mono&quot;;writing-mode:lr-tb;fill:#000;fill-opacity:1;fill-rule:nonzero;stroke:none;white-space:pre" transform="matrix(1 0 0 -1 75.024 710.98)"><tspan x="0" y="0">+</tspan></text>
  </g>
  <g clip-path="url(#b)" transform="matrix(1.33333 0 0 -1.33333 0 1056)">
    <text style="font-variant:normal;font-weight:400;font-size:10.56px;font-family:&quot;Dank Mono&quot;;writing-mode:lr-tb;fill:#000;fill-opacity:1;fill-rule:nonzero;stroke:none;white-space:pre" transform="matrix(1 0 0 -1 81.384 710.98)"><tspan x="0 6.336 12.59808 18.93408 25.196159 31.53216 37.794239 44.130241 50.392319 56.728321 62.990398 69.326401 75.588478 81.924477 88.186562 94.52256 100.78464" y="0">-----------------</tspan></text>
  </g>
  <g clip-path="url(#c)" transform="matrix(1.33333 0 0 -1.33333 0 1056)">
    <text style="font-variant:normal;font-weight:400;font-size:10.56px;font-family:&quot;Dank Mono&quot;;writing-mode:lr-tb;fill:#000;fill-opacity:1;fill-rule:nonzero;stroke:none;white-space:pre" transform="matrix(1 0 0 -1 188.54 710.98)"><tspan x="0" y="0">+</tspan></text>
  </g>
  <g clip-path="url(#d)" transform="matrix(1.33333 0 0 -1.33333 0 1056)">
    <text style="font-variant:normal;font-weight:400;font-size:10.56px;font-family:&quot;Dank Mono&quot;;writing-mode:lr-tb;fill:#000;fill-opacity:1;fill-rule:nonzero;stroke:none;white-space:pre" transform="matrix(1 0 0 -1 75.024 699.1)"><tspan x="0 6.336 50.487358 56.749439 63.085442 69.347519 75.683517 88.281601 94.543678 113.47776" y="0">| .=o. . |</tspan></text>
  </g>
  <g clip-path="url(#e)" transform="matrix(1.33333 0 0 -1.33333 0 1056)">
    <text style="font-variant:normal;font-weight:400;font-size:10.56px;font-family:&quot;Dank Mono&quot;;writing-mode:lr-tb;fill:#000;fill-opacity:1;fill-rule:nonzero;stroke:none;white-space:pre" transform="matrix(1 0 0 -1 75.024 687.22)"><tspan x="0 6.336 37.889278 44.15136 50.487358 56.749439 63.085442 69.347519 75.683517 81.945602 88.281601 113.47776" y="0">| . *+*. o |</tspan></text>
  </g>
  <g clip-path="url(#f)" transform="matrix(1.33333 0 0 -1.33333 0 1056)">
    <text style="font-variant:normal;font-weight:400;font-size:10.56px;font-family:&quot;Dank Mono&quot;;writing-mode:lr-tb;fill:#000;fill-opacity:1;fill-rule:nonzero;stroke:none;white-space:pre" transform="matrix(1 0 0 -1 75.024 675.34)"><tspan x="0 6.336 44.15136 50.487358 56.749439 63.085442 69.347519 75.683517 81.945602 113.47776" y="0">| =.*..o |</tspan></text>
  </g>
  <g clip-path="url(#g)" transform="matrix(1.33333 0 0 -1.33333 0 1056)">
    <text style="font-variant:normal;font-weight:400;font-size:10.56px;font-family:&quot;Dank Mono&quot;;writing-mode:lr-tb;fill:#000;fill-opacity:1;fill-rule:nonzero;stroke:none;white-space:pre" transform="matrix(1 0 0 -1 75.024 663.46)"><tspan x="0 6.336 50.487358 56.749439 63.085442 69.347519 75.683517 81.945602 88.281601 113.47776" y="0">| o + .. |</tspan></text>
  </g>
  <g clip-path="url(#h)" transform="matrix(1.33333 0 0 -1.33333 0 1056)">
    <text style="font-variant:normal;font-weight:400;font-size:10.56px;font-family:&quot;Dank Mono&quot;;writing-mode:lr-tb;fill:#000;fill-opacity:1;fill-rule:nonzero;stroke:none;white-space:pre" transform="matrix(1 0 0 -1 75.024 651.46)"><tspan x="0 6.336 56.749439 63.085442 69.347519 75.683517 81.945602 113.47776" y="0">| S o. |</tspan></text>
  </g>
  <g clip-path="url(#i)" transform="matrix(1.33333 0 0 -1.33333 0 1056)">
    <text style="font-variant:normal;font-weight:400;font-size:10.56px;font-family:&quot;Dank Mono&quot;;writing-mode:lr-tb;fill:#000;fill-opacity:1;fill-rule:nonzero;stroke:none;white-space:pre" transform="matrix(1 0 0 -1 75.024 639.58)"><tspan x="0 6.336 63.085442 69.347519 81.945602 88.281601 113.47776" y="0">| o . |</tspan></text>
  </g>
  <g clip-path="url(#j)" transform="matrix(1.33333 0 0 -1.33333 0 1056)">
    <text style="font-variant:normal;font-weight:400;font-size:10.56px;font-family:&quot;Dank Mono&quot;;writing-mode:lr-tb;fill:#000;fill-opacity:1;fill-rule:nonzero;stroke:none;white-space:pre" transform="matrix(1 0 0 -1 75.024 627.7)"><tspan x="0 6.336 69.347519 75.683517 88.281601 94.543678 100.87968 107.14176 113.47776" y="0">| . . . |</tspan></text>
  </g>
  <g clip-path="url(#k)" transform="matrix(1.33333 0 0 -1.33333 0 1056)">
    <text style="font-variant:normal;font-weight:400;font-size:10.56px;font-family:&quot;Dank Mono&quot;;writing-mode:lr-tb;fill:#000;fill-opacity:1;fill-rule:nonzero;stroke:none;white-space:pre" transform="matrix(1 0 0 -1 75.024 615.82)"><tspan x="0 6.336 94.543678 100.87968 107.14176 113.47776" y="0">| o .|</tspan></text>
  </g>
  <g clip-path="url(#l)" transform="matrix(1.33333 0 0 -1.33333 0 1056)">
    <text style="font-variant:normal;font-weight:400;font-size:10.56px;font-family:&quot;Dank Mono&quot;;writing-mode:lr-tb;fill:#000;fill-opacity:1;fill-rule:nonzero;stroke:none;white-space:pre" transform="matrix(1 0 0 -1 75.024 603.94)"><tspan x="0 6.336 100.87968 107.14176 113.47776" y="0">| E.|</tspan></text>
  </g>
  <g clip-path="url(#m)" transform="matrix(1.33333 0 0 -1.33333 0 1056)">
    <text style="font-variant:normal;font-weight:400;font-size:10.56px;font-family:&quot;Dank Mono&quot;;writing-mode:lr-tb;fill:#000;fill-opacity:1;fill-rule:nonzero;stroke:none;white-space:pre" transform="matrix(1 0 0 -1 75.024 592.06)"><tspan x="0" y="0">+</tspan></text>
  </g>
  <g clip-path="url(#n)" transform="matrix(1.33333 0 0 -1.33333 0 1056)">
    <text style="font-variant:normal;font-weight:400;font-size:10.56px;font-family:&quot;Dank Mono&quot;;writing-mode:lr-tb;fill:#000;fill-opacity:1;fill-rule:nonzero;stroke:none;white-space:pre" transform="matrix(1 0 0 -1 81.384 592.06)"><tspan x="0 6.336 12.59808 18.93408 25.196159 31.53216 37.794239 44.130241 50.392319 56.728321 62.990398 69.326401 75.588478 81.924477 88.186562 94.52256 100.78464" y="0">-----------------</tspan></text>
  </g>
  <g clip-path="url(#o)" transform="matrix(1.33333 0 0 -1.33333 0 1056)">
    <text style="font-variant:normal;font-weight:400;font-size:10.56px;font-family:&quot;Dank Mono&quot;;writing-mode:lr-tb;fill:#000;fill-opacity:1;fill-rule:nonzero;stroke:none;white-space:pre" transform="matrix(1 0 0 -1 188.54 592.06)"><tspan x="0" y="0">+</tspan></text>
  </g>
</svg>
