<svg xmlns:dc="http://purl.org/dc/elements/1.1/" xmlns:cc="http://creativecommons.org/ns#" xmlns:rdf="http://www.w3.org/1999/02/22-rdf-syntax-ns#" xmlns:svg="http://www.w3.org/2000/svg" xmlns="http://www.w3.org/2000/svg" viewBox="0 0 816 1056" height="1056" width="816" xml:space="preserve" id="svg2" version="1.1"><metadata id="metadata8"><rdf:RDF><cc:Work rdf:about=""><dc:format>image/svg+xml</dc:format><dc:type rdf:resource="http://purl.org/dc/dcmitype/StillImage"/></cc:Work></rdf:RDF></metadata><defs id="defs6"><clipPath id="clipPath18" clipPathUnits="userSpaceOnUse"><path style="clip-rule:evenodd" id="path16" d="M 9.12e-6,0 H 612.00001 V 792 H 9.12e-6 Z"/></clipPath><clipPath id="clipPath30" clipPathUnits="userSpaceOnUse"><path style="clip-rule:evenodd" id="path28" d="M 9.12e-6,0 H 612.00001 V 792 H 9.12e-6 Z"/></clipPath><clipPath id="clipPath42" clipPathUnits="userSpaceOnUse"><path style="clip-rule:evenodd" id="path40" d="M 9.12e-6,0 H 612.00001 V 792 H 9.12e-6 Z"/></clipPath><clipPath id="clipPath54" clipPathUnits="userSpaceOnUse"><path style="clip-rule:evenodd" id="path52" d="M 9.12e-6,0 H 612.00001 V 792 H 9.12e-6 Z"/></clipPath><clipPath id="clipPath62" clipPathUnits="userSpaceOnUse"><path style="clip-rule:evenodd" id="path60" d="M 9.12e-6,0 H 612.00001 V 792 H 9.12e-6 Z"/></clipPath><clipPath id="clipPath74" clipPathUnits="userSpaceOnUse"><path style="clip-rule:evenodd" id="path72" d="M 9.12e-6,0 H 612.00001 V 792 H 9.12e-6 Z"/></clipPath><clipPath id="clipPath82" clipPathUnits="userSpaceOnUse"><path style="clip-rule:evenodd" id="path80" d="M 9.12e-6,0 H 612.00001 V 792 H 9.12e-6 Z"/></clipPath><clipPath id="clipPath94" clipPathUnits="userSpaceOnUse"><path style="clip-rule:evenodd" id="path92" d="M 9.12e-6,0 H 612.00001 V 792 H 9.12e-6 Z"/></clipPath><clipPath id="clipPath102" clipPathUnits="userSpaceOnUse"><path style="clip-rule:evenodd" id="path100" d="M 9.12e-6,0 H 612.00001 V 792 H 9.12e-6 Z"/></clipPath><clipPath id="clipPath114" clipPathUnits="userSpaceOnUse"><path style="clip-rule:evenodd" id="path112" d="M 9.12e-6,0 H 612.00001 V 792 H 9.12e-6 Z"/></clipPath><clipPath id="clipPath122" clipPathUnits="userSpaceOnUse"><path style="clip-rule:evenodd" id="path120" d="M 9.12e-6,0 H 612.00001 V 792 H 9.12e-6 Z"/></clipPath><clipPath id="clipPath134" clipPathUnits="userSpaceOnUse"><path style="clip-rule:evenodd" id="path132" d="M 9.12e-6,0 H 612.00001 V 792 H 9.12e-6 Z"/></clipPath><clipPath id="clipPath142" clipPathUnits="userSpaceOnUse"><path style="clip-rule:evenodd" id="path140" d="M 9.12e-6,0 H 612.00001 V 792 H 9.12e-6 Z"/></clipPath><clipPath id="clipPath154" clipPathUnits="userSpaceOnUse"><path style="clip-rule:evenodd" id="path152" d="M 9.12e-6,0 H 612.00001 V 792 H 9.12e-6 Z"/></clipPath><clipPath id="clipPath162" clipPathUnits="userSpaceOnUse"><path style="clip-rule:evenodd" id="path160" d="M 9.12e-6,0 H 612.00001 V 792 H 9.12e-6 Z"/></clipPath><clipPath id="clipPath174" clipPathUnits="userSpaceOnUse"><path style="clip-rule:evenodd" id="path172" d="M 9.12e-6,0 H 612.00001 V 792 H 9.12e-6 Z"/></clipPath><clipPath id="clipPath182" clipPathUnits="userSpaceOnUse"><path style="clip-rule:evenodd" id="path180" d="M 9.12e-6,0 H 612.00001 V 792 H 9.12e-6 Z"/></clipPath><clipPath id="clipPath194" clipPathUnits="userSpaceOnUse"><path style="clip-rule:evenodd" id="path192" d="M 9.12e-6,0 H 612.00001 V 792 H 9.12e-6 Z"/></clipPath><clipPath id="clipPath202" clipPathUnits="userSpaceOnUse"><path style="clip-rule:evenodd" id="path200" d="M 9.12e-6,0 H 612.00001 V 792 H 9.12e-6 Z"/></clipPath><clipPath id="clipPath214" clipPathUnits="userSpaceOnUse"><path style="clip-rule:evenodd" id="path212" d="M 9.12e-6,0 H 612.00001 V 792 H 9.12e-6 Z"/></clipPath><clipPath id="clipPath222" clipPathUnits="userSpaceOnUse"><path style="clip-rule:evenodd" id="path220" d="M 9.12e-6,0 H 612.00001 V 792 H 9.12e-6 Z"/></clipPath><clipPath id="clipPath234" clipPathUnits="userSpaceOnUse"><path style="clip-rule:evenodd" id="path232" d="M 9.12e-6,0 H 612.00001 V 792 H 9.12e-6 Z"/></clipPath><clipPath id="clipPath242" clipPathUnits="userSpaceOnUse"><path style="clip-rule:evenodd" id="path240" d="M 9.12e-6,0 H 612.00001 V 792 H 9.12e-6 Z"/></clipPath><clipPath id="clipPath254" clipPathUnits="userSpaceOnUse"><path style="clip-rule:evenodd" id="path252" d="M 9.12e-6,0 H 612.00001 V 792 H 9.12e-6 Z"/></clipPath><clipPath id="clipPath266" clipPathUnits="userSpaceOnUse"><path style="clip-rule:evenodd" id="path264" d="M 9.12e-6,0 H 612.00001 V 792 H 9.12e-6 Z"/></clipPath><clipPath id="clipPath278" clipPathUnits="userSpaceOnUse"><path style="clip-rule:evenodd" id="path276" d="M 9.12e-6,0 H 612.00001 V 792 H 9.12e-6 Z"/></clipPath></defs><g transform="matrix(1.3333333,0,0,-1.3333333,0,1056)" id="g10"><g id="g12"><g clip-path="url(#clipPath18)" id="g14"><text id="text22" style="font-variant:normal;font-weight:normal;font-size:10.56000042px;font-family:'Courier 10 Pitch';-inkscape-font-specification:CourierNewPSMT;writing-mode:lr-tb;fill:#000000;fill-opacity:1;fill-rule:nonzero;stroke:none" transform="matrix(1,0,0,-1,75.024,710.98)"><tspan id="tspan20" y="0" x="0">+</tspan></text>
</g></g><g id="g24"><g clip-path="url(#clipPath30)" id="g26"><text id="text34" style="font-variant:normal;font-weight:normal;font-size:10.56000042px;font-family:'Courier 10 Pitch';-inkscape-font-specification:CourierNewPSMT;writing-mode:lr-tb;fill:#000000;fill-opacity:1;fill-rule:nonzero;stroke:none" transform="matrix(1,0,0,-1,81.384,710.98)"><tspan id="tspan32" y="0" x="0 6.336 12.59808 18.93408 25.196159 31.53216 37.794239 44.130241 50.392319 56.728321 62.990398 69.326401 75.588478 81.924477 88.186562 94.52256 100.78464">-----------------</tspan></text>
</g></g><g id="g36"><g clip-path="url(#clipPath42)" id="g38"><text id="text46" style="font-variant:normal;font-weight:normal;font-size:10.56000042px;font-family:'Courier 10 Pitch';-inkscape-font-specification:CourierNewPSMT;writing-mode:lr-tb;fill:#000000;fill-opacity:1;fill-rule:nonzero;stroke:none" transform="matrix(1,0,0,-1,188.54,710.98)"><tspan id="tspan44" y="0" x="0">+</tspan></text>
</g></g><g id="g48"><g clip-path="url(#clipPath54)" id="g50"/></g><g id="g56"><g clip-path="url(#clipPath62)" id="g58"><text id="text66" style="font-variant:normal;font-weight:normal;font-size:10.56000042px;font-family:'Courier 10 Pitch';-inkscape-font-specification:CourierNewPSMT;writing-mode:lr-tb;fill:#000000;fill-opacity:1;fill-rule:nonzero;stroke:none" transform="matrix(1,0,0,-1,75.024,699.1)"><tspan id="tspan64" y="0" x="0 6.336 50.487358 56.749439 63.085442 69.347519 75.683517 88.281601 94.543678 113.47776">| .=o. . |</tspan></text>
</g></g><g id="g68"><g clip-path="url(#clipPath74)" id="g70"/></g><g id="g76"><g clip-path="url(#clipPath82)" id="g78"><text id="text86" style="font-variant:normal;font-weight:normal;font-size:10.56000042px;font-family:'Courier 10 Pitch';-inkscape-font-specification:CourierNewPSMT;writing-mode:lr-tb;fill:#000000;fill-opacity:1;fill-rule:nonzero;stroke:none" transform="matrix(1,0,0,-1,75.024,687.22)"><tspan id="tspan84" y="0" x="0 6.336 37.889278 44.15136 50.487358 56.749439 63.085442 69.347519 75.683517 81.945602 88.281601 113.47776">| . *+*. o |</tspan></text>
</g></g><g id="g88"><g clip-path="url(#clipPath94)" id="g90"/></g><g id="g96"><g clip-path="url(#clipPath102)" id="g98"><text id="text106" style="font-variant:normal;font-weight:normal;font-size:10.56000042px;font-family:'Courier 10 Pitch';-inkscape-font-specification:CourierNewPSMT;writing-mode:lr-tb;fill:#000000;fill-opacity:1;fill-rule:nonzero;stroke:none" transform="matrix(1,0,0,-1,75.024,675.34)"><tspan id="tspan104" y="0" x="0 6.336 44.15136 50.487358 56.749439 63.085442 69.347519 75.683517 81.945602 113.47776">| =.*..o |</tspan></text>
</g></g><g id="g108"><g clip-path="url(#clipPath114)" id="g110"/></g><g id="g116"><g clip-path="url(#clipPath122)" id="g118"><text id="text126" style="font-variant:normal;font-weight:normal;font-size:10.56000042px;font-family:'Courier 10 Pitch';-inkscape-font-specification:CourierNewPSMT;writing-mode:lr-tb;fill:#000000;fill-opacity:1;fill-rule:nonzero;stroke:none" transform="matrix(1,0,0,-1,75.024,663.46)"><tspan id="tspan124" y="0" x="0 6.336 50.487358 56.749439 63.085442 69.347519 75.683517 81.945602 88.281601 113.47776">| o + .. |</tspan></text>
</g></g><g id="g128"><g clip-path="url(#clipPath134)" id="g130"/></g><g id="g136"><g clip-path="url(#clipPath142)" id="g138"><text id="text146" style="font-variant:normal;font-weight:normal;font-size:10.56000042px;font-family:'Courier 10 Pitch';-inkscape-font-specification:CourierNewPSMT;writing-mode:lr-tb;fill:#000000;fill-opacity:1;fill-rule:nonzero;stroke:none" transform="matrix(1,0,0,-1,75.024,651.46)"><tspan id="tspan144" y="0" x="0 6.336 56.749439 63.085442 69.347519 75.683517 81.945602 113.47776">| S o. |</tspan></text>
</g></g><g id="g148"><g clip-path="url(#clipPath154)" id="g150"/></g><g id="g156"><g clip-path="url(#clipPath162)" id="g158"><text id="text166" style="font-variant:normal;font-weight:normal;font-size:10.56000042px;font-family:'Courier 10 Pitch';-inkscape-font-specification:CourierNewPSMT;writing-mode:lr-tb;fill:#000000;fill-opacity:1;fill-rule:nonzero;stroke:none" transform="matrix(1,0,0,-1,75.024,639.58)"><tspan id="tspan164" y="0" x="0 6.336 63.085442 69.347519 81.945602 88.281601 113.47776">| o . |</tspan></text>
</g></g><g id="g168"><g clip-path="url(#clipPath174)" id="g170"/></g><g id="g176"><g clip-path="url(#clipPath182)" id="g178"><text id="text186" style="font-variant:normal;font-weight:normal;font-size:10.56000042px;font-family:'Courier 10 Pitch';-inkscape-font-specification:CourierNewPSMT;writing-mode:lr-tb;fill:#000000;fill-opacity:1;fill-rule:nonzero;stroke:none" transform="matrix(1,0,0,-1,75.024,627.7)"><tspan id="tspan184" y="0" x="0 6.336 69.347519 75.683517 88.281601 94.543678 100.87968 107.14176 113.47776">| . . . |</tspan></text>
</g></g><g id="g188"><g clip-path="url(#clipPath194)" id="g190"/></g><g id="g196"><g clip-path="url(#clipPath202)" id="g198"><text id="text206" style="font-variant:normal;font-weight:normal;font-size:10.56000042px;font-family:'Courier 10 Pitch';-inkscape-font-specification:CourierNewPSMT;writing-mode:lr-tb;fill:#000000;fill-opacity:1;fill-rule:nonzero;stroke:none" transform="matrix(1,0,0,-1,75.024,615.82)"><tspan id="tspan204" y="0" x="0 6.336 94.543678 100.87968 107.14176 113.47776">| o .|</tspan></text>
</g></g><g id="g208"><g clip-path="url(#clipPath214)" id="g210"/></g><g id="g216"><g clip-path="url(#clipPath222)" id="g218"><text id="text226" style="font-variant:normal;font-weight:normal;font-size:10.56000042px;font-family:'Courier 10 Pitch';-inkscape-font-specification:CourierNewPSMT;writing-mode:lr-tb;fill:#000000;fill-opacity:1;fill-rule:nonzero;stroke:none" transform="matrix(1,0,0,-1,75.024,603.94)"><tspan id="tspan224" y="0" x="0 6.336 100.87968 107.14176 113.47776">| E.|</tspan></text>
</g></g><g id="g228"><g clip-path="url(#clipPath234)" id="g230"/></g><g id="g236"><g clip-path="url(#clipPath242)" id="g238"><text id="text246" style="font-variant:normal;font-weight:normal;font-size:10.56000042px;font-family:'Courier 10 Pitch';-inkscape-font-specification:CourierNewPSMT;writing-mode:lr-tb;fill:#000000;fill-opacity:1;fill-rule:nonzero;stroke:none" transform="matrix(1,0,0,-1,75.024,592.06)"><tspan id="tspan244" y="0" x="0">+</tspan></text>
</g></g><g id="g248"><g clip-path="url(#clipPath254)" id="g250"><text id="text258" style="font-variant:normal;font-weight:normal;font-size:10.56000042px;font-family:'Courier 10 Pitch';-inkscape-font-specification:CourierNewPSMT;writing-mode:lr-tb;fill:#000000;fill-opacity:1;fill-rule:nonzero;stroke:none" transform="matrix(1,0,0,-1,81.384,592.06)"><tspan id="tspan256" y="0" x="0 6.336 12.59808 18.93408 25.196159 31.53216 37.794239 44.130241 50.392319 56.728321 62.990398 69.326401 75.588478 81.924477 88.186562 94.52256 100.78464">-----------------</tspan></text>
</g></g><g id="g260"><g clip-path="url(#clipPath266)" id="g262"><text id="text270" style="font-variant:normal;font-weight:normal;font-size:10.56000042px;font-family:'Courier 10 Pitch';-inkscape-font-specification:CourierNewPSMT;writing-mode:lr-tb;fill:#000000;fill-opacity:1;fill-rule:nonzero;stroke:none" transform="matrix(1,0,0,-1,188.54,592.06)"><tspan id="tspan268" y="0" x="0">+</tspan></text>
</g></g><g id="g272"><g clip-path="url(#clipPath278)" id="g274"/></g></g></svg>